<svg width="72" height="72" viewBox="0 0 72 72" fill="none" xmlns="http://www.w3.org/2000/svg">
<path fill-rule="evenodd" clip-rule="evenodd" d="M0 36H9.6C9.6 28.7098 12.5549 22.1098 17.3324 17.3324L13.938 13.938C26.124 1.75498 45.876 1.75498 58.062 13.938L54.6676 17.3324C59.4451 22.1098 62.4 28.7098 62.4 36H72C72 16.1177 55.8823 0 36 0C16.1177 0 0 16.1177 0 36Z" fill="#CED2DB"/>
<path fill-rule="evenodd" clip-rule="evenodd" d="M67.2 36H8.7V51.6H0V67.2H14.4V72H57.6V67.2H67.2V36Z" fill="#CED2DB"/>
<path d="M22.2 36C22.2 28.3793 28.3793 22.2 36 22.2C43.6206 22.2 49.7999 28.3793 49.7999 36" fill="#FFD200"/>
<path d="M57.6 36H14.4V67.2H57.6V36Z" fill="#0052FF"/>
<path d="M36 50.4C36.9941 50.4 37.8 49.5941 37.8 48.6C37.8 47.6059 36.9941 46.8 36 46.8C35.0058 46.8 34.2 47.6059 34.2 48.6C34.2 49.5941 35.0058 50.4 36 50.4Z" fill="#0A0B0D"/>
<path d="M36.2999 48H35.7V56.4H36.2999V48Z" fill="#0A0B0D"/>
<path d="M54.2999 36H53.6999C53.6999 26.241 45.7589 18.3 36 18.3C26.241 18.3 18.3 26.241 18.3 36H17.7C17.7 25.908 25.908 17.7 36 17.7C46.0919 17.7 54.2999 25.908 54.2999 36Z" fill="#0A0B0D"/>
</svg>
